<?xml version="1.0" encoding="UTF-8" standalone="no"?>
<!DOCTYPE svg PUBLIC "-//W3C//DTD SVG 1.1//EN" "http://www.w3.org/Graphics/SVG/1.1/DTD/svg11.dtd">
<svg width="100%" height="100%" viewBox="0 0 1080 1080" version="1.1" xmlns="http://www.w3.org/2000/svg" xmlns:xlink="http://www.w3.org/1999/xlink" xml:space="preserve" xmlns:serif="http://www.serif.com/" style="fill-rule:evenodd;clip-rule:evenodd;stroke-linejoin:round;stroke-miterlimit:2;">
    <g transform="matrix(1,0,0,1.00384,0,-4.14366)">
        <path d="M1080,89.286C1080,42.286 1041.69,4.128 994.515,4.128L85.485,4.128C38.305,4.128 0,42.286 0,89.286L0,994.842C0,1041.84 38.305,1080 85.485,1080L994.515,1080C1041.69,1080 1080,1041.84 1080,994.842L1080,89.286Z" style="fill:rgb(0,62,142);"/>
    </g>
    <g transform="matrix(0.948876,0,0,0.916582,8.79899,28.7617)">
        <ellipse cx="657.12" cy="663.192" rx="308.702" ry="319.239" style="fill:rgb(235,235,235);"/>
    </g>
    <g transform="matrix(0.724713,0,0,0.724713,-13.0617,-3.75013)">
        <path d="M846.296,611.355C961.018,611.355 1054.16,706.282 1054.16,823.206C1054.16,940.129 961.018,1035.06 846.296,1035.06C731.574,1035.06 638.434,940.129 638.434,823.206C638.434,706.282 731.574,611.355 846.296,611.355ZM846.296,672.346C927.99,672.346 994.315,739.944 994.315,823.206C994.315,906.467 927.99,974.065 846.296,974.065C764.602,974.065 698.277,906.467 698.277,823.206C698.277,739.944 764.602,672.346 846.296,672.346Z" style="fill:rgb(228,109,0);"/>
    </g>
    <g transform="matrix(-0.632527,-0.35372,0.35372,-0.632527,562.535,937.373)">
        <path d="M208.613,600.991L140.733,600.991L157.703,540L191.643,540L208.613,600.991Z" style="fill:rgb(228,109,0);"/>
    </g>
    <g transform="matrix(0.708787,0.151094,-0.151094,0.708787,543.204,254.136)">
        <path d="M208.613,600.991L140.733,600.991L157.703,540L191.643,540L208.613,600.991Z" style="fill:rgb(228,109,0);"/>
    </g>
    <g transform="matrix(0.46557,-0.555386,0.555386,0.46557,289.527,463.324)">
        <path d="M208.613,600.991L140.733,600.991L157.703,540L191.643,540L208.613,600.991Z" style="fill:rgb(228,109,0);"/>
    </g>
    <g transform="matrix(-0.319922,0.650276,-0.650276,-0.319922,935.775,644.066)">
        <path d="M208.613,600.991L140.733,600.991L157.703,540L191.643,540L208.613,600.991Z" style="fill:rgb(228,109,0);"/>
    </g>
    <g transform="matrix(0.236744,0.445138,-0.451699,0.240234,866.783,322.475)">
        <path d="M125.325,723.577C125.156,725.928 125.071,728.284 125.071,730.64C125.071,786.522 171.642,831.892 229.005,831.892C286.406,831.892 332.939,786.56 332.939,730.64L229.005,730.64L125.325,723.577Z" style="fill:rgb(166,166,166);"/>
    </g>
    <g transform="matrix(0.618346,-0.449115,0.449115,0.618346,54.5609,269.281)">
        <g transform="matrix(0.972568,-1.38099e-16,1.38099e-16,-2.10023,0.302017,1333.9)">
            <path d="M580.358,425.626L75.4,425.626L201.639,408.521L454.118,408.521L580.358,425.626Z" style="fill:rgb(235,235,235);"/>
        </g>
        <g transform="matrix(1.16434,0,0,1.71678,-189.673,120.996)">
            <path d="M647.725,185.804C647.864,183.639 647.933,181.472 647.933,179.304C647.933,98.517 553.434,32.927 437.038,32.927C320.642,32.927 226.143,98.517 226.143,179.304C226.143,181.472 226.212,183.639 226.351,185.805L647.725,185.804Z" style="fill:rgb(235,235,235);"/>
        </g>
        <g transform="matrix(0.955979,0,0,1.50154,-11.6894,-60.2957)">
            <rect x="89.252" y="316.882" width="513.721" height="16.293" style="fill:rgb(166,166,166);"/>
        </g>
        <g transform="matrix(0.0129736,0,0,6.65875,356.052,-2041.01)">
            <rect x="89.252" y="316.882" width="513.721" height="16.293" style="fill:rgb(166,166,166);"/>
        </g>
        <g transform="matrix(0.0129736,0,0,6.65875,296.223,-2027.04)">
            <rect x="89.252" y="316.882" width="513.721" height="16.293" style="fill:rgb(166,166,166);"/>
        </g>
        <g transform="matrix(1.13169,0,0,1.17109,25.0582,18.2237)">
            <ellipse cx="262.353" cy="235.587" rx="39.1" ry="39.436"/>
        </g>
        <g transform="matrix(0.176793,0,0,0.173831,294.798,246.31)">
            <ellipse cx="262.353" cy="235.587" rx="39.1" ry="39.436" style="fill:rgb(242,242,242);"/>
        </g>
        <g transform="matrix(0.191886,0,0,0.354129,310.201,94.0965)">
            <ellipse cx="262.353" cy="235.587" rx="39.1" ry="39.436"/>
        </g>
        <g transform="matrix(0.191886,0,0,0.354129,310.201,-14.3956)">
            <ellipse cx="262.353" cy="235.587" rx="39.1" ry="39.436"/>
        </g>
        <g transform="matrix(0.673042,0,0,0.689337,247.06,207.009)">
            <ellipse cx="262.353" cy="235.587" rx="39.1" ry="39.436"/>
        </g>
        <g transform="matrix(1,0,0,1,-24.9842,57.9229)">
            <path d="M448.618,274.838C468.312,274.838 484.301,291.259 484.301,311.485C484.301,331.711 468.312,348.132 448.618,348.132C428.925,348.132 412.936,331.711 412.936,311.485C412.936,291.259 428.925,274.838 448.618,274.838ZM448.618,279.95C465.565,279.95 479.323,294.081 479.323,311.485C479.323,328.89 465.565,343.02 448.618,343.02C431.672,343.02 417.914,328.89 417.914,311.485C417.914,294.081 431.672,279.95 448.618,279.95Z"/>
        </g>
        <g transform="matrix(1,0,0,1,-15.6183,67.3848)">
            <rect x="123.314" y="329.208" width="63.998" height="18.924" style="fill:rgb(228,109,0);"/>
        </g>
        <g transform="matrix(1.63301,0.420909,-0.194974,0.756442,36.821,-73.6236)">
            <path d="M187.312,333.939C187.312,331.328 186.33,329.208 185.12,329.208L125.505,329.208C124.296,329.208 123.314,331.328 123.314,333.939L123.314,343.401C123.314,346.013 124.296,348.132 125.505,348.132L185.12,348.132C186.33,348.132 187.312,346.013 187.312,343.401L187.312,333.939Z" style="fill:rgb(228,109,0);"/>
        </g>
        <g transform="matrix(1.66467,-0.269729,0.124944,0.771109,115.203,28.6742)">
            <path d="M187.312,333.939C187.312,331.328 186.33,329.208 185.12,329.208L125.505,329.208C124.296,329.208 123.314,331.328 123.314,333.939L123.314,343.401C123.314,346.013 124.296,348.132 125.505,348.132L185.12,348.132C186.33,348.132 187.312,346.013 187.312,343.401L187.312,333.939Z" style="fill:rgb(228,109,0);"/>
        </g>
        <g transform="matrix(0.489718,0,0,1,432.652,67.3848)">
            <rect x="123.314" y="329.208" width="63.998" height="18.924" style="fill:rgb(228,109,0);"/>
        </g>
        <g transform="matrix(0.262216,0,0,1,507.265,67.3848)">
            <rect x="123.314" y="329.208" width="63.998" height="18.924" style="fill:rgb(228,109,0);"/>
        </g>
    </g>
</svg>