<?xml version="1.0" encoding="UTF-8" standalone="no"?>
<!DOCTYPE svg PUBLIC "-//W3C//DTD SVG 1.1//EN" "http://www.w3.org/Graphics/SVG/1.1/DTD/svg11.dtd">
<svg width="100%" height="100%" viewBox="0 0 1080 1080" version="1.1" xmlns="http://www.w3.org/2000/svg" xmlns:xlink="http://www.w3.org/1999/xlink" xml:space="preserve" xmlns:serif="http://www.serif.com/" style="fill-rule:evenodd;clip-rule:evenodd;stroke-linejoin:round;stroke-miterlimit:2;">
    <g transform="matrix(1,0,0,1.00384,1.13687e-13,-4.14366)">
        <path d="M1080,89.286C1080,42.286 1041.69,4.128 994.515,4.128L85.485,4.128C38.305,4.128 0,42.286 0,89.286L0,994.842C0,1041.84 38.305,1080 85.485,1080L994.515,1080C1041.69,1080 1080,1041.84 1080,994.842L1080,89.286Z" style="fill:rgb(64,64,64);"/>
    </g>
    <g transform="matrix(1.69198,0,0,1.69198,-1006.3,-798.473)">
        <g transform="matrix(-0.999099,0.165318,0.220772,1.33423,1232.74,112.754)">
            <rect x="397.982" y="137.793" width="50.265" height="219.044" style="fill:rgb(9,126,255);"/>
        </g>
        <g transform="matrix(0.999099,0.165318,-0.220772,1.33423,595.056,112.754)">
            <rect x="397.982" y="137.793" width="50.265" height="219.044" style="fill:rgb(9,126,255);"/>
        </g>
    </g>
    <g transform="matrix(1.47328,0,0,1.47328,-255.573,-329.615)">
        <g transform="matrix(1,0,0,1,-259.429,128.777)">
            <ellipse cx="799.429" cy="461.479" rx="233.931" ry="233.42" style="fill:rgb(189,113,0);"/>
        </g>
        <g transform="matrix(1.27915,0,0,1.31013,-213.29,-194.477)">
            <path d="M588.901,436.166C679.76,436.166 753.527,509.118 753.527,598.974C753.527,688.83 679.76,761.782 588.901,761.782C498.042,761.782 424.276,688.83 424.276,598.974C424.276,509.118 498.042,436.166 588.901,436.166ZM588.901,453.292C670.203,453.292 736.209,518.57 736.209,598.974C736.209,679.378 670.203,744.655 588.901,744.655C507.6,744.655 441.593,679.378 441.593,598.974C441.593,518.57 507.6,453.292 588.901,453.292Z" style="fill:rgb(168,86,0);"/>
        </g>
    </g>
</svg>