<?xml version="1.0" encoding="UTF-8" standalone="no"?>
<!DOCTYPE svg PUBLIC "-//W3C//DTD SVG 1.1//EN" "http://www.w3.org/Graphics/SVG/1.1/DTD/svg11.dtd">
<svg width="100%" height="100%" viewBox="0 0 1080 1080" version="1.1" xmlns="http://www.w3.org/2000/svg" xmlns:xlink="http://www.w3.org/1999/xlink" xml:space="preserve" xmlns:serif="http://www.serif.com/" style="fill-rule:evenodd;clip-rule:evenodd;stroke-linejoin:round;stroke-miterlimit:2;">
    <g transform="matrix(1,0,0,1.00384,0,-4.14366)">
        <path d="M1080,89.286C1080,42.286 1041.69,4.128 994.515,4.128L85.485,4.128C38.305,4.128 0,42.286 0,89.286L0,994.842C0,1041.84 38.305,1080 85.485,1080L994.515,1080C1041.69,1080 1080,1041.84 1080,994.842L1080,89.286Z" style="fill:rgb(2,48,71);"/>
    </g>
    <g transform="matrix(1,0,0,1,-27.1316,-57.867)">
        <text x="172.67px" y="671.789px" style="font-family:'Lobster-Regular', 'Lobster';font-size:576px;fill:rgb(0,122,147);">H</text>
    </g>
    <g transform="matrix(1,0,0,1,-42.8087,-75.4633)">
        <text x="172.67px" y="671.789px" style="font-family:'Lobster-Regular', 'Lobster';font-size:576px;fill:rgb(251,133,0);">H</text>
    </g>
    <g transform="matrix(1,0,0,1,11.5149,306.664)">
        <text x="172.67px" y="671.789px" style="font-family:'Lobster-Regular', 'Lobster';font-size:576px;fill:rgb(142,202,230);">+</text>
    </g>
    <g transform="matrix(1,0,0,1,179.23,215.698)">
        <text x="172.67px" y="671.789px" style="font-family:'Lobster-Regular', 'Lobster';font-size:576px;fill:rgb(0,122,147);">W</text>
    </g>
    <g transform="matrix(1,0,0,1,163.553,202.035)">
        <text x="172.67px" y="671.789px" style="font-family:'Lobster-Regular', 'Lobster';font-size:576px;fill:rgb(255,183,3);">W</text>
    </g>
</svg>
