<?xml version="1.0" encoding="UTF-8" standalone="no"?>
<!DOCTYPE svg PUBLIC "-//W3C//DTD SVG 1.1//EN" "http://www.w3.org/Graphics/SVG/1.1/DTD/svg11.dtd">
<svg width="100%" height="100%" viewBox="0 0 1080 1080" version="1.1" xmlns="http://www.w3.org/2000/svg" xmlns:xlink="http://www.w3.org/1999/xlink" xml:space="preserve" xmlns:serif="http://www.serif.com/" style="fill-rule:evenodd;clip-rule:evenodd;stroke-linejoin:round;stroke-miterlimit:2;">
    <g transform="matrix(1,0,0,1.00384,0,-4.14366)">
        <path d="M1080,89.286C1080,42.286 1041.69,4.128 994.515,4.128L85.485,4.128C38.305,4.128 0,42.286 0,89.286L0,994.842C0,1041.84 38.305,1080 85.485,1080L994.515,1080C1041.69,1080 1080,1041.84 1080,994.842L1080,89.286Z" style="fill:rgb(229,127,255);"/>
    </g>
    <g transform="matrix(1.05912,0,0,1.09084,-146.541,-58.1035)">
        <path d="M648.219,342.91C721.595,213.392 868.346,213.392 941.723,278.151C1015.1,342.91 1015.1,472.428 941.723,601.946C890.359,699.084 758.283,796.223 648.219,860.981C538.155,796.223 406.079,699.084 354.715,601.946C281.34,472.428 281.34,342.91 354.715,278.151C428.092,213.392 574.843,213.392 648.219,342.91Z" style="fill:rgb(177,0,73);"/>
    </g>
    <g transform="matrix(1,0,0,1,-108.22,-8.29768)">
        <path d="M648.219,342.91C721.595,213.392 868.346,213.392 941.723,278.151C1015.1,342.91 1015.1,472.428 941.723,601.946C890.359,699.084 758.283,796.223 648.219,860.981C538.155,796.223 406.079,699.084 354.715,601.946C281.34,472.428 281.34,342.91 354.715,278.151C428.092,213.392 574.843,213.392 648.219,342.91Z" style="fill:rgb(255,13,94);"/>
    </g>
</svg>
