<?xml version="1.0" encoding="UTF-8" standalone="no"?>
<!DOCTYPE svg PUBLIC "-//W3C//DTD SVG 1.1//EN" "http://www.w3.org/Graphics/SVG/1.1/DTD/svg11.dtd">
<svg width="100%" height="100%" viewBox="0 0 1080 1080" version="1.1" xmlns="http://www.w3.org/2000/svg" xmlns:xlink="http://www.w3.org/1999/xlink" xml:space="preserve" xmlns:serif="http://www.serif.com/" style="fill-rule:evenodd;clip-rule:evenodd;stroke-linejoin:round;stroke-miterlimit:2;">
    <g transform="matrix(1,0,0,1.00384,0,-4.14366)">
        <path d="M1080,89.286C1080,42.286 1041.69,4.128 994.515,4.128L85.485,4.128C38.305,4.128 0,42.286 0,89.286L0,994.842C0,1041.84 38.305,1080 85.485,1080L994.515,1080C1041.69,1080 1080,1041.84 1080,994.842L1080,89.286Z" style="fill:rgb(63,255,235);"/>
    </g>
    <g transform="matrix(1.27789,0,0,1.87783,-258.542,-303.099)">
        <path d="M624.89,236.098C698.076,236.098 757.493,331.485 757.493,448.975C757.493,566.465 698.076,661.852 624.89,661.852C551.704,661.852 492.286,566.465 492.286,448.975C492.286,331.485 551.704,236.098 624.89,236.098ZM624.89,251.271C692.859,251.271 748.042,339.859 748.042,448.975C748.042,558.091 692.859,646.679 624.89,646.679C556.92,646.679 501.738,558.091 501.738,448.975C501.738,339.859 556.92,251.271 624.89,251.271Z" style="fill:rgb(38,38,38);"/>
    </g>
    <g transform="matrix(0.639133,1.10658,-1.62609,0.93919,870.687,-573.163)">
        <path d="M624.89,236.098C698.076,236.098 757.493,331.485 757.493,448.975C757.493,566.465 698.076,661.852 624.89,661.852C551.704,661.852 492.286,566.465 492.286,448.975C492.286,331.485 551.704,236.098 624.89,236.098ZM624.89,251.271C692.859,251.271 748.042,339.859 748.042,448.975C748.042,558.091 692.859,646.679 624.89,646.679C556.92,646.679 501.738,558.091 501.738,448.975C501.738,339.859 556.92,251.271 624.89,251.271Z" style="fill:rgb(38,38,38);"/>
    </g>
    <g transform="matrix(0.638393,-1.10701,-1.62672,-0.938104,871.43,1652.94)">
        <path d="M624.89,236.098C698.076,236.098 757.493,331.485 757.493,448.975C757.493,566.465 698.076,661.852 624.89,661.852C551.704,661.852 492.286,566.465 492.286,448.975C492.286,331.485 551.704,236.098 624.89,236.098ZM624.89,251.271C692.859,251.271 748.042,339.859 748.042,448.975C748.042,558.091 692.859,646.679 624.89,646.679C556.92,646.679 501.738,558.091 501.738,448.975C501.738,339.859 556.92,251.271 624.89,251.271Z" style="fill:rgb(38,38,38);"/>
    </g>
    <g transform="matrix(1,0,0,1,18.1125,34.5506)">
        <ellipse cx="521.887" cy="105.703" rx="48.126" ry="48.461" style="fill:rgb(242,34,0);"/>
    </g>
    <g transform="matrix(1,0,0,1,18.1125,434.297)">
        <ellipse cx="521.887" cy="105.703" rx="48.126" ry="48.461" style="fill:rgb(11,255,11);"/>
    </g>
    <g transform="matrix(1,0,0,1,-312.966,644.281)">
        <ellipse cx="521.887" cy="105.703" rx="48.126" ry="48.461" style="fill:rgb(0,2,208);"/>
    </g>
    <g transform="matrix(1,0,0,1,18.1125,820.22)">
        <ellipse cx="521.887" cy="105.703" rx="48.126" ry="48.461" style="fill:rgb(255,243,61);"/>
    </g>
    <g transform="matrix(1,0,0,1,349.093,644.281)">
        <ellipse cx="521.887" cy="105.703" rx="48.126" ry="48.461" style="fill:rgb(244,115,0);"/>
    </g>
    <g transform="matrix(1,0,0,1,-312.868,219.16)">
        <ellipse cx="521.887" cy="105.703" rx="48.126" ry="48.461" style="fill:rgb(255,147,247);"/>
    </g>
    <g transform="matrix(1,0,0,1,349.093,234.786)">
        <ellipse cx="521.887" cy="105.703" rx="48.126" ry="48.461" style="fill:rgb(188,69,255);"/>
    </g>
</svg>
