<?xml version="1.0" encoding="UTF-8" standalone="no"?>
<!DOCTYPE svg PUBLIC "-//W3C//DTD SVG 1.1//EN" "http://www.w3.org/Graphics/SVG/1.1/DTD/svg11.dtd">
<svg width="100%" height="100%" viewBox="0 0 1080 1080" version="1.1" xmlns="http://www.w3.org/2000/svg" xmlns:xlink="http://www.w3.org/1999/xlink" xml:space="preserve" xmlns:serif="http://www.serif.com/" style="fill-rule:evenodd;clip-rule:evenodd;stroke-linejoin:round;stroke-miterlimit:2;">
    <g transform="matrix(1,0,0,1.00384,0,-4.14366)">
        <path d="M1080,89.286C1080,42.286 1041.69,4.128 994.515,4.128L85.485,4.128C38.305,4.128 0,42.286 0,89.286L0,994.842C0,1041.84 38.305,1080 85.485,1080L994.515,1080C1041.69,1080 1080,1041.84 1080,994.842L1080,89.286Z" style="fill:rgb(53,109,255);"/>
    </g>
    <g transform="matrix(1.3433,0,0,1.34264,-199.704,-121.347)">
        <ellipse cx="550.66" cy="492.571" rx="297.773" ry="297.919" style="fill:rgb(255,230,123);"/>
    </g>
    <g transform="matrix(0.134654,0,0,0.132015,560.273,550.959)">
        <ellipse cx="550.66" cy="492.571" rx="297.773" ry="297.919" style="fill:rgb(191,76,0);"/>
    </g>
    <g transform="matrix(0.134654,0,0,0.132015,587.331,340.94)">
        <ellipse cx="550.66" cy="492.571" rx="297.773" ry="297.919" style="fill:rgb(191,76,0);"/>
    </g>
    <g transform="matrix(0.134654,0,0,0.132015,560.273,194.279)">
        <ellipse cx="550.66" cy="492.571" rx="297.773" ry="297.919" style="fill:rgb(191,76,0);"/>
    </g>
    <g transform="matrix(0.134654,0,0,0.132015,358.314,698.815)">
        <ellipse cx="550.66" cy="492.571" rx="297.773" ry="297.919" style="fill:rgb(191,76,0);"/>
    </g>
    <g transform="matrix(0.134654,0,0,0.132015,415.062,376.937)">
        <ellipse cx="550.66" cy="492.571" rx="297.773" ry="297.919" style="fill:rgb(191,76,0);"/>
    </g>
    <g transform="matrix(0.134654,0,0,0.132015,505.948,738.145)">
        <ellipse cx="550.66" cy="492.571" rx="297.773" ry="297.919" style="fill:rgb(191,76,0);"/>
    </g>
    <g transform="matrix(0.134654,0,0,0.132015,688.019,659.485)">
        <ellipse cx="550.66" cy="492.571" rx="297.773" ry="297.919" style="fill:rgb(191,76,0);"/>
    </g>
    <g transform="matrix(0.134654,0,0,0.132015,256.526,295.168)">
        <ellipse cx="550.66" cy="492.571" rx="297.773" ry="297.919" style="fill:rgb(191,76,0);"/>
    </g>
    <g transform="matrix(0.134654,0,0,0.132015,374.966,550.959)">
        <ellipse cx="550.66" cy="492.571" rx="297.773" ry="297.919" style="fill:rgb(191,76,0);"/>
    </g>
    <g transform="matrix(0.134654,0,0,0.132015,239.981,450.68)">
        <ellipse cx="550.66" cy="492.571" rx="297.773" ry="297.919" style="fill:rgb(191,76,0);"/>
    </g>
    <g transform="matrix(0.134654,0,0,0.132015,398.41,233.609)">
        <ellipse cx="550.66" cy="492.571" rx="297.773" ry="297.919" style="fill:rgb(191,76,0);"/>
    </g>
    <g transform="matrix(0.134654,0,0,0.132015,216.429,614.352)">
        <ellipse cx="550.66" cy="492.571" rx="297.773" ry="297.919" style="fill:rgb(191,76,0);"/>
    </g>
    <g transform="matrix(0.134654,0,0,0.132015,714.752,450.719)">
        <ellipse cx="550.66" cy="492.571" rx="297.773" ry="297.919" style="fill:rgb(191,76,0);"/>
    </g>
    <g transform="matrix(2.11836,0,0,1.29323,-1003.92,-41.052)">
        <path d="M728.825,140C833.041,140 917.65,278.594 917.65,449.303C917.65,620.013 833.041,758.607 728.825,758.607C624.61,758.607 540,620.013 540,449.303C540,278.594 624.61,140 728.825,140ZM728.825,169.756C823.015,169.756 899.485,295.017 899.485,449.303C899.485,603.59 823.015,728.851 728.825,728.851C634.636,728.851 558.166,603.59 558.166,449.303C558.166,295.017 634.636,169.756 728.825,169.756Z" style="fill:rgb(207,140,0);"/>
    </g>
</svg>
