<?xml version="1.0" encoding="UTF-8" standalone="no"?>
<!DOCTYPE svg PUBLIC "-//W3C//DTD SVG 1.1//EN" "http://www.w3.org/Graphics/SVG/1.1/DTD/svg11.dtd">
<svg width="100%" height="100%" viewBox="0 0 1080 1080" version="1.1" xmlns="http://www.w3.org/2000/svg" xmlns:xlink="http://www.w3.org/1999/xlink" xml:space="preserve" xmlns:serif="http://www.serif.com/" style="fill-rule:evenodd;clip-rule:evenodd;stroke-linecap:round;stroke-linejoin:round;stroke-miterlimit:1.5;">
    <g transform="matrix(1,0,0,1.00384,0,-4.14366)">
        <path d="M1080,89.286C1080,42.286 1041.69,4.128 994.515,4.128L85.485,4.128C38.305,4.128 0,42.286 0,89.286L0,994.842C0,1041.84 38.305,1080 85.485,1080L994.515,1080C1041.69,1080 1080,1041.84 1080,994.842L1080,89.286Z" style="fill:rgb(0,177,143);"/>
    </g>
    <g transform="matrix(1.40292,0,0,1.68116,-217.178,-211.572)">
        <path d="M784.318,376.039L295.682,376.039L417.841,240.491L662.159,240.491L784.318,376.039Z"/>
    </g>
    <g transform="matrix(1.40444,4.59011e-17,-4.59011e-17,-1.02963,-260.216,657.045)">
        <path d="M888.35,262.266L251.203,262.266L285.909,200.134L855.474,200.134L888.35,262.266Z"/>
    </g>
    <g transform="matrix(0.242909,-0.986201,1.64929,0.406234,385.706,1032.83)">
        <path d="M826.955,99.915C760.304,114.839 714.375,162.434 714.375,216.577C714.375,220.814 714.659,225.048 715.226,229.263L747.502,226.614C747.053,223.28 746.828,219.929 746.828,216.577C746.828,173.739 783.167,136.083 835.9,124.276L826.955,99.915Z"/>
    </g>
    <g transform="matrix(-0.242909,-0.986201,-1.64929,0.406234,694.193,1032.83)">
        <path d="M826.955,99.915C760.304,114.839 714.375,162.434 714.375,216.577C714.375,220.814 714.659,225.048 715.226,229.263L747.502,226.614C747.053,223.28 746.828,219.929 746.828,216.577C746.828,173.739 783.167,136.083 835.9,124.276L826.955,99.915Z"/>
    </g>
    <g transform="matrix(1.34578,0,0,1.79401,-208.528,0.430954)">
        <path d="M744.629,151.623C744.629,102.543 660.267,62.756 556.202,62.756C452.137,62.756 367.775,102.543 367.775,151.623L744.629,151.623Z"/>
    </g>
    <g transform="matrix(1.07739,0,0,1.13648,-123.215,25.2206)">
        <ellipse cx="615.573" cy="452.96" rx="295.108" ry="194.102" style="fill:white;"/>
    </g>
    <g transform="matrix(0.717783,0,0,1,50.2031,-168.674)">
        <path d="M1000.69,1028.39L364.062,1028.39L475.259,833.199L889.491,833.199L1000.69,1028.39Z" style="fill:white;"/>
    </g>
    <g transform="matrix(0.85237,0,0,-1.24249,3.79551,1180.13)">
        <path d="M522.992,543.598C522.992,512.229 486.734,486.799 442.007,486.799C397.281,486.799 361.023,512.229 361.023,543.598L522.992,543.598Z" style="fill:rgb(255,251,217);stroke:black;stroke-width:12.2px;"/>
    </g>
    <g transform="matrix(1.55873,0,0,-2.28339,17.6531,1716.4)">
        <path d="M522.992,543.598C522.992,512.229 486.734,486.799 442.007,486.799C397.281,486.799 361.023,512.229 361.023,543.598L522.992,543.598Z" style="stroke:black;stroke-width:6.65px;"/>
    </g>
    <g transform="matrix(1,0,0,1,-20.1953,15.0702)">
        <path d="M560.195,560.216L580.391,631.279L540,631.279L560.195,560.216Z" style="stroke:black;stroke-width:10px;"/>
    </g>
    <g transform="matrix(1,0,0,1,4.71137,1.03175)">
        <path d="M690.028,782.648C690.028,779.321 687.326,776.619 683.999,776.619L386.579,776.619C383.251,776.619 380.549,779.321 380.549,782.648L380.549,794.708C380.549,798.035 383.251,800.737 386.579,800.737L683.999,800.737C687.326,800.737 690.028,798.035 690.028,794.708L690.028,782.648Z"/>
    </g>
    <g transform="matrix(1.94223e-17,-0.31719,1.02691,6.28799e-17,-371.334,959.498)">
        <path d="M690.028,782.648C690.028,779.321 681.281,776.619 670.507,776.619L400.07,776.619C389.296,776.619 380.549,779.321 380.549,782.648L380.549,794.708C380.549,798.035 389.296,800.737 400.07,800.737L670.507,800.737C681.281,800.737 690.028,798.035 690.028,794.708L690.028,782.648Z"/>
    </g>
    <g transform="matrix(1.94223e-17,-0.31719,1.02691,6.28799e-17,-225.343,959.498)">
        <path d="M690.028,782.648C690.028,779.321 681.281,776.619 670.507,776.619L400.07,776.619C389.296,776.619 380.549,779.321 380.549,782.648L380.549,794.708C380.549,798.035 389.296,800.737 400.07,800.737L670.507,800.737C681.281,800.737 690.028,798.035 690.028,794.708L690.028,782.648Z"/>
    </g>
    <g transform="matrix(1.94223e-17,-0.31719,1.02691,6.28799e-17,-157.086,959.498)">
        <path d="M690.028,782.648C690.028,779.321 681.281,776.619 670.507,776.619L400.07,776.619C389.296,776.619 380.549,779.321 380.549,782.648L380.549,794.708C380.549,798.035 389.296,800.737 400.07,800.737L670.507,800.737C681.281,800.737 690.028,798.035 690.028,794.708L690.028,782.648Z"/>
    </g>
    <g transform="matrix(1.94223e-17,-0.31719,1.02691,6.28799e-17,-300.194,959.498)">
        <path d="M690.028,782.648C690.028,779.321 681.281,776.619 670.507,776.619L400.07,776.619C389.296,776.619 380.549,779.321 380.549,782.648L380.549,794.708C380.549,798.035 389.296,800.737 400.07,800.737L670.507,800.737C681.281,800.737 690.028,798.035 690.028,794.708L690.028,782.648Z"/>
    </g>
    <g transform="matrix(0.923807,-0.382859,0.302617,0.730191,-215.754,210.358)">
        <path d="M646.155,475.152C634.432,495.03 624.916,541.629 624.916,594.42C624.916,647.211 634.432,693.811 646.155,713.689C639.121,685.859 633.411,641.997 633.411,594.42C633.411,546.843 639.121,502.981 646.155,475.152Z" style="stroke:black;stroke-width:14.42px;"/>
    </g>
</svg>
